# xmcd
#
# Track frame offsets:
#	150
#	13000
#	26225
#	39930
#	51342
#	62342
#	73695
#	86062
#	99535
#	111025
#	124835
#
# Disc length: 1830 seconds
#
# Revision: 1
# Processed by: cddbd v1.5.2PL0 Copyright (c) Steve Scherf et al.
# Submitted via: audiograbber 1.83.01
#
DISCID=9007240b
DTITLE=Jack Robertson - Honky Tonk Daze
DYEAR=1992
DGENRE=Country
TTITLE0=Come And Get Us Mama (We're In Trouble With The Law)
TTITLE1=I Kissed The Bus
TTITLE2=Living With Your Memory
TTITLE3=Bent Over Backwards
TTITLE4=Honky Tonk Daze
TTITLE5=Bootie Bumpin' Dancin' Fool
TTITLE6=Where Do You Think You're Coming From
TTITLE7=What's My World Coming To
TTITLE8=Middle Of A Drought
TTITLE9=The Old Country Barber
TTITLE10=Blue Neon Blues
EXTD=
EXTT0=
EXTT1=
EXTT2=
EXTT3=
EXTT4=
EXTT5=
EXTT6=
EXTT7=
EXTT8=
EXTT9=
EXTT10=
PLAYORDER=
